# xmcd
#
# Track frame offsets:
#	150
#	13027
#	22405
#	31340
#	43205
#	52207
#	61905
#	75902
#	86037
#	95192
#	104620
#	111792
#	124895
#	132105
#	144510
#	152887
#	163267
#	174897
#	185187
#	196217
#	207745
#	218990
#	230662
#	240795
#
# Disc length: 3383 seconds
#
# Revision: 3
# Processed by: cddbd v1.5.2PL0 Copyright (c) Steve Scherf et al.
# Submitted via: VUPlayer 2.49
#
DISCID=640d3518
DTITLE=Les Paul and Mary Ford - 24 Greatest Hits
DYEAR=1989
DGENRE=Pop
TTITLE0=Vaya Con Dios
TTITLE1=How High the Moon
TTITLE2=Johnny is the Boy for Me
TTITLE3=Walkin' and Whistlin' Blues
TTITLE4=Whispering =instr.=
TTITLE5=Mr. Sandman
TTITLE6=Tennesee Waltz
TTITLE7=I'm Sitting On the Top of the World
TTITLE8=Bye Bye Blues
TTITLE9=Tiger Rag =instr.=
TTITLE10=The Jazz Me Blues =instr.=
TTITLE11=I'm Forever Blowing Bubbles
TTITLE12=Tico-Tico =instr.=
TTITLE13=Lover =instr.=
TTITLE14=Lady of Spain =instr.=
TTITLE15=12th Street Rag =instr.=
TTITLE16=St. Louis Blues
TTITLE17=Mockin' Bird Hill
TTITLE18=The Best Things in Life Are Free
TTITLE19=Nola =instr.=
TTITLE20=Carioca =instr.=
TTITLE21=Goofus =instr.=
TTITLE22=Jealous
TTITLE23=I'm A Fool To Care
EXTD=
EXTT0=
EXTT1=
EXTT2=
EXTT3=
EXTT4=
EXTT5=
EXTT6=
EXTT7=
EXTT8=
EXTT9=
EXTT10=
EXTT11=
EXTT12=
EXTT13=
EXTT14=
EXTT15=
EXTT16=
EXTT17=
EXTT18=
EXTT19=
EXTT20=
EXTT21=
EXTT22=
EXTT23=
PLAYORDER=
